<mxfile host="app.diagrams.net" agent="Mozilla/5.0 (Macintosh; Intel Mac OS X 10_15_7) AppleWebKit/537.36 (KHTML, like Gecko) Chrome/128.0.0.0 Safari/537.36" version="24.7.15">
  <diagram name="Page-1" id="xaBScqVrZRNOG_s1V2p9">
    <mxGraphModel dx="4412" dy="-420" grid="1" gridSize="10" guides="1" tooltips="1" connect="1" arrows="1" fold="1" page="1" pageScale="1" pageWidth="827" pageHeight="1169" math="0" shadow="0">
      <root>
        <mxCell id="0" />
        <mxCell id="1" parent="0" />
        <mxCell id="43QZVn4vfsfI2NEGmepG-2" value="" style="shape=image;verticalLabelPosition=bottom;labelBackgroundColor=default;verticalAlign=top;aspect=fixed;imageAspect=0;image=https://images.clickittech.com/2020/wp-content/uploads/2022/03/10172917/Diagram-56-scaled.jpg;" parent="1" vertex="1">
          <mxGeometry x="420" y="3450" width="1200" height="821" as="geometry" />
        </mxCell>
        <mxCell id="IYAlEV4HdCrfrUGSwek0-1" value="System" style="rounded=1;whiteSpace=wrap;html=1;fontFamily=Chakra Petch;fontSource=https%3A%2F%2Ffonts.googleapis.com%2Fcss%3Ffamily%3DChakra%2BPetch;verticalAlign=bottom;spacingBottom=5;" parent="1" vertex="1">
          <mxGeometry x="-220" y="5100" width="120" height="100" as="geometry" />
        </mxCell>
        <mxCell id="IYAlEV4HdCrfrUGSwek0-4" value="" style="rounded=1;whiteSpace=wrap;html=1;absoluteArcSize=1;arcSize=14;strokeWidth=2;strokeColor=#23445d;shadow=1;textShadow=1;movable=1;resizable=1;rotatable=1;deletable=1;editable=1;locked=0;connectable=1;fillColor=#FCFCFC;" parent="1" vertex="1">
          <mxGeometry x="1010" y="4790" width="661" height="630" as="geometry" />
        </mxCell>
        <mxCell id="IYAlEV4HdCrfrUGSwek0-5" value="" style="group;fontFamily=Chakra Petch;fontSource=https%3A%2F%2Ffonts.googleapis.com%2Fcss%3Ffamily%3DChakra%2BPetch;" parent="1" vertex="1" connectable="0">
          <mxGeometry x="1041" y="4760" width="250" height="48" as="geometry" />
        </mxCell>
        <mxCell id="IYAlEV4HdCrfrUGSwek0-6" value="&lt;span style=&quot;font-size: 17px;&quot;&gt;&lt;b&gt;&amp;nbsp; &amp;nbsp; &amp;nbsp; &amp;nbsp; Pre-processing&lt;/b&gt;&lt;/span&gt;" style="rounded=1;whiteSpace=wrap;html=1;fillColor=#647687;strokeColor=#314354;glass=0;shadow=1;textShadow=1;fontColor=#ffffff;fontFamily=Chakra Petch;fontSource=https%3A%2F%2Ffonts.googleapis.com%2Fcss%3Ffamily%3DChakra%2BPetch;" parent="IYAlEV4HdCrfrUGSwek0-5" vertex="1">
          <mxGeometry width="210" height="48" as="geometry" />
        </mxCell>
        <mxCell id="IYAlEV4HdCrfrUGSwek0-7" value="" style="image;points=[];aspect=fixed;html=1;align=center;shadow=0;dashed=0;image=img/lib/allied_telesis/computer_and_terminals/Server_Desktop.svg;" parent="IYAlEV4HdCrfrUGSwek0-5" vertex="1">
          <mxGeometry x="13.079999999999984" y="4.940000000000055" width="31.6" height="40.06" as="geometry" />
        </mxCell>
        <mxCell id="IYAlEV4HdCrfrUGSwek0-8" value="" style="rounded=1;whiteSpace=wrap;html=1;absoluteArcSize=1;arcSize=14;strokeWidth=2;strokeColor=#23445d;shadow=1;textShadow=1;movable=1;resizable=1;rotatable=1;deletable=1;editable=1;locked=0;connectable=1;fillColor=#FCFCFC;" parent="1" vertex="1">
          <mxGeometry x="270" y="5520" width="610" height="630" as="geometry" />
        </mxCell>
        <mxCell id="IYAlEV4HdCrfrUGSwek0-9" value="" style="group;fontFamily=Chakra Petch;fontSource=https%3A%2F%2Ffonts.googleapis.com%2Fcss%3Ffamily%3DChakra%2BPetch;" parent="1" vertex="1" connectable="0">
          <mxGeometry x="301" y="5490" width="172.00000000000006" height="48" as="geometry" />
        </mxCell>
        <mxCell id="IYAlEV4HdCrfrUGSwek0-10" value="&lt;span style=&quot;font-size: 17px;&quot;&gt;&lt;b&gt;&amp;nbsp; &amp;nbsp; &amp;nbsp; Processing&lt;/b&gt;&lt;/span&gt;" style="rounded=1;whiteSpace=wrap;html=1;fillColor=#647687;strokeColor=#314354;glass=0;shadow=1;textShadow=1;fontColor=#ffffff;fontFamily=Chakra Petch;fontSource=https%3A%2F%2Ffonts.googleapis.com%2Fcss%3Ffamily%3DChakra%2BPetch;" parent="IYAlEV4HdCrfrUGSwek0-9" vertex="1">
          <mxGeometry width="172" height="48" as="geometry" />
        </mxCell>
        <mxCell id="IYAlEV4HdCrfrUGSwek0-11" value="" style="image;points=[];aspect=fixed;html=1;align=center;shadow=0;dashed=0;image=img/lib/allied_telesis/computer_and_terminals/Server_Desktop.svg;" parent="IYAlEV4HdCrfrUGSwek0-9" vertex="1">
          <mxGeometry x="13.079999999999984" y="4.940000000000055" width="31.6" height="40.06" as="geometry" />
        </mxCell>
        <mxCell id="IYAlEV4HdCrfrUGSwek0-17" value="" style="rounded=1;whiteSpace=wrap;html=1;absoluteArcSize=1;arcSize=14;strokeWidth=3;strokeColor=#6C8EBF;shadow=1;textShadow=1;" parent="1" vertex="1">
          <mxGeometry x="-780" y="5596" width="180" height="220" as="geometry" />
        </mxCell>
        <mxCell id="IYAlEV4HdCrfrUGSwek0-20" value="Data" style="rounded=1;whiteSpace=wrap;html=1;fillColor=#b1ddf0;strokeColor=#10739e;glass=0;shadow=1;textShadow=1;fontSize=17;fontFamily=Chakra Petch;fontSource=https%3A%2F%2Ffonts.googleapis.com%2Fcss%3Ffamily%3DChakra%2BPetch;fontStyle=1" parent="1" vertex="1">
          <mxGeometry x="-756.54" y="5560" width="133.08" height="43" as="geometry" />
        </mxCell>
        <mxCell id="IYAlEV4HdCrfrUGSwek0-24" value="Dataset" style="rounded=1;whiteSpace=wrap;html=1;fontFamily=Chakra Petch;fontSource=https%3A%2F%2Ffonts.googleapis.com%2Fcss%3Ffamily%3DChakra%2BPetch;verticalAlign=bottom;spacingBottom=5;" parent="1" vertex="1">
          <mxGeometry x="1080" y="4900" width="120" height="100" as="geometry" />
        </mxCell>
        <mxCell id="IYAlEV4HdCrfrUGSwek0-25" value="Data Cleans&lt;span style=&quot;background-color: initial;&quot;&gt;ing&lt;/span&gt;" style="rounded=1;whiteSpace=wrap;html=1;fontFamily=Chakra Petch;fontSource=https%3A%2F%2Ffonts.googleapis.com%2Fcss%3Ffamily%3DChakra%2BPetch;verticalAlign=bottom;spacingBottom=5;" parent="1" vertex="1">
          <mxGeometry x="1240" y="4900" width="120" height="100" as="geometry" />
        </mxCell>
        <mxCell id="IYAlEV4HdCrfrUGSwek0-26" value="Data Tranformation" style="rounded=1;whiteSpace=wrap;html=1;fontFamily=Chakra Petch;fontSource=https%3A%2F%2Ffonts.googleapis.com%2Fcss%3Ffamily%3DChakra%2BPetch;verticalAlign=bottom;spacingBottom=5;" parent="1" vertex="1">
          <mxGeometry x="1410" y="4900" width="120" height="100" as="geometry" />
        </mxCell>
        <mxCell id="IYAlEV4HdCrfrUGSwek0-27" value="Data Integration" style="rounded=1;whiteSpace=wrap;html=1;fontFamily=Chakra Petch;fontSource=https%3A%2F%2Ffonts.googleapis.com%2Fcss%3Ffamily%3DChakra%2BPetch;verticalAlign=bottom;spacingBottom=5;" parent="1" vertex="1">
          <mxGeometry x="1240" y="5211" width="120" height="100" as="geometry" />
        </mxCell>
        <mxCell id="IYAlEV4HdCrfrUGSwek0-28" value="Data Enrichment" style="rounded=1;whiteSpace=wrap;html=1;fontFamily=Chakra Petch;fontSource=https%3A%2F%2Ffonts.googleapis.com%2Fcss%3Ffamily%3DChakra%2BPetch;verticalAlign=bottom;spacingBottom=5;" parent="1" vertex="1">
          <mxGeometry x="1250" y="5055" width="120" height="100" as="geometry" />
        </mxCell>
        <mxCell id="IYAlEV4HdCrfrUGSwek0-29" value="Data Validation" style="rounded=1;whiteSpace=wrap;html=1;fontFamily=Chakra Petch;fontSource=https%3A%2F%2Ffonts.googleapis.com%2Fcss%3Ffamily%3DChakra%2BPetch;verticalAlign=bottom;spacingBottom=5;" parent="1" vertex="1">
          <mxGeometry x="1410" y="5055" width="120" height="100" as="geometry" />
        </mxCell>
        <mxCell id="IYAlEV4HdCrfrUGSwek0-30" value="Data Reduction" style="rounded=1;whiteSpace=wrap;html=1;fontFamily=Chakra Petch;fontSource=https%3A%2F%2Ffonts.googleapis.com%2Fcss%3Ffamily%3DChakra%2BPetch;verticalAlign=bottom;spacingBottom=5;" parent="1" vertex="1">
          <mxGeometry x="1080" y="5060" width="120" height="100" as="geometry" />
        </mxCell>
        <mxCell id="IYAlEV4HdCrfrUGSwek0-32" value="" style="rounded=1;whiteSpace=wrap;html=1;absoluteArcSize=1;arcSize=14;strokeWidth=2;strokeColor=#23445d;shadow=1;textShadow=1;movable=1;resizable=1;rotatable=1;deletable=1;editable=1;locked=0;connectable=1;fillColor=#FCFCFC;" parent="1" vertex="1">
          <mxGeometry x="250" y="4790" width="640" height="630" as="geometry" />
        </mxCell>
        <mxCell id="IYAlEV4HdCrfrUGSwek0-33" value="" style="group;fontFamily=Chakra Petch;fontSource=https%3A%2F%2Ffonts.googleapis.com%2Fcss%3Ffamily%3DChakra%2BPetch;" parent="1" vertex="1" connectable="0">
          <mxGeometry x="281" y="4760" width="172.00000000000006" height="48" as="geometry" />
        </mxCell>
        <mxCell id="IYAlEV4HdCrfrUGSwek0-34" value="&lt;span style=&quot;font-size: 17px;&quot;&gt;&lt;b&gt;&amp;nbsp; &amp;nbsp; &amp;nbsp; Data&amp;nbsp;&lt;/b&gt;&lt;/span&gt;&lt;b style=&quot;font-size: 17px;&quot;&gt;Aquire&lt;/b&gt;" style="rounded=1;whiteSpace=wrap;html=1;fillColor=#647687;strokeColor=#314354;glass=0;shadow=1;textShadow=1;fontColor=#ffffff;fontFamily=Chakra Petch;fontSource=https%3A%2F%2Ffonts.googleapis.com%2Fcss%3Ffamily%3DChakra%2BPetch;" parent="IYAlEV4HdCrfrUGSwek0-33" vertex="1">
          <mxGeometry width="172" height="48" as="geometry" />
        </mxCell>
        <mxCell id="IYAlEV4HdCrfrUGSwek0-35" value="" style="image;points=[];aspect=fixed;html=1;align=center;shadow=0;dashed=0;image=img/lib/allied_telesis/computer_and_terminals/Server_Desktop.svg;" parent="IYAlEV4HdCrfrUGSwek0-33" vertex="1">
          <mxGeometry x="13.079999999999984" y="4.940000000000055" width="31.6" height="40.06" as="geometry" />
        </mxCell>
        <mxCell id="IYAlEV4HdCrfrUGSwek0-36" value="Raw Data" style="rounded=1;whiteSpace=wrap;html=1;fontFamily=Chakra Petch;fontSource=https%3A%2F%2Ffonts.googleapis.com%2Fcss%3Ffamily%3DChakra%2BPetch;verticalAlign=bottom;spacingBottom=5;" parent="1" vertex="1">
          <mxGeometry x="370" y="5066" width="120" height="100" as="geometry" />
        </mxCell>
        <mxCell id="IYAlEV4HdCrfrUGSwek0-37" value="Upload Data" style="rounded=1;whiteSpace=wrap;html=1;fontFamily=Chakra Petch;fontSource=https%3A%2F%2Ffonts.googleapis.com%2Fcss%3Ffamily%3DChakra%2BPetch;verticalAlign=bottom;spacingBottom=5;" parent="1" vertex="1">
          <mxGeometry x="640" y="5066" width="120" height="100" as="geometry" />
        </mxCell>
        <mxCell id="IYAlEV4HdCrfrUGSwek0-38" value="Data Stock" style="rounded=1;whiteSpace=wrap;html=1;fontFamily=Chakra Petch;fontSource=https%3A%2F%2Ffonts.googleapis.com%2Fcss%3Ffamily%3DChakra%2BPetch;verticalAlign=bottom;spacingBottom=5;" parent="1" vertex="1">
          <mxGeometry x="500" y="5211" width="120" height="100" as="geometry" />
        </mxCell>
        <mxCell id="zx_7Ppx-CcEC-WtG45oS-1" value="" style="rounded=1;whiteSpace=wrap;html=1;absoluteArcSize=1;arcSize=14;strokeWidth=2;strokeColor=#23445d;shadow=1;textShadow=1;movable=1;resizable=1;rotatable=1;deletable=1;editable=1;locked=0;connectable=1;fillColor=#FCFCFC;" vertex="1" parent="1">
          <mxGeometry x="1030" y="5540" width="760" height="630" as="geometry" />
        </mxCell>
        <mxCell id="zx_7Ppx-CcEC-WtG45oS-2" value="" style="group;fontFamily=Chakra Petch;fontSource=https%3A%2F%2Ffonts.googleapis.com%2Fcss%3Ffamily%3DChakra%2BPetch;" vertex="1" connectable="0" parent="1">
          <mxGeometry x="1061" y="5510" width="172.00000000000006" height="48" as="geometry" />
        </mxCell>
        <mxCell id="zx_7Ppx-CcEC-WtG45oS-3" value="&lt;span style=&quot;font-size: 17px;&quot;&gt;&lt;b&gt;&amp;nbsp; &amp;nbsp; &amp;nbsp; &amp;nbsp; &amp;nbsp; &amp;nbsp;Presentation&lt;/b&gt;&lt;/span&gt;" style="rounded=1;whiteSpace=wrap;html=1;fillColor=#647687;strokeColor=#314354;glass=0;shadow=1;textShadow=1;fontColor=#ffffff;fontFamily=Chakra Petch;fontSource=https%3A%2F%2Ffonts.googleapis.com%2Fcss%3Ffamily%3DChakra%2BPetch;" vertex="1" parent="zx_7Ppx-CcEC-WtG45oS-2">
          <mxGeometry width="172" height="48" as="geometry" />
        </mxCell>
        <mxCell id="zx_7Ppx-CcEC-WtG45oS-4" value="" style="image;points=[];aspect=fixed;html=1;align=center;shadow=0;dashed=0;image=img/lib/allied_telesis/computer_and_terminals/Server_Desktop.svg;" vertex="1" parent="zx_7Ppx-CcEC-WtG45oS-2">
          <mxGeometry x="13.079999999999984" y="4.940000000000055" width="31.6" height="40.06" as="geometry" />
        </mxCell>
        <mxCell id="zx_7Ppx-CcEC-WtG45oS-5" value="User Ploblems" style="rounded=1;whiteSpace=wrap;html=1;fontFamily=Chakra Petch;fontSource=https%3A%2F%2Ffonts.googleapis.com%2Fcss%3Ffamily%3DChakra%2BPetch;verticalAlign=bottom;spacingBottom=5;" vertex="1" parent="1">
          <mxGeometry x="320" y="5620" width="120" height="100" as="geometry" />
        </mxCell>
        <mxCell id="zx_7Ppx-CcEC-WtG45oS-6" value="Keyword &amp;amp; Search" style="rounded=1;whiteSpace=wrap;html=1;fontFamily=Chakra Petch;fontSource=https%3A%2F%2Ffonts.googleapis.com%2Fcss%3Ffamily%3DChakra%2BPetch;verticalAlign=bottom;spacingBottom=5;" vertex="1" parent="1">
          <mxGeometry x="490" y="5620" width="120" height="100" as="geometry" />
        </mxCell>
        <mxCell id="zx_7Ppx-CcEC-WtG45oS-7" value="Evaluate &amp;amp; Matching" style="rounded=1;whiteSpace=wrap;html=1;fontFamily=Chakra Petch;fontSource=https%3A%2F%2Ffonts.googleapis.com%2Fcss%3Ffamily%3DChakra%2BPetch;verticalAlign=bottom;spacingBottom=5;" vertex="1" parent="1">
          <mxGeometry x="660" y="5620" width="120" height="100" as="geometry" />
        </mxCell>
        <mxCell id="zx_7Ppx-CcEC-WtG45oS-8" value="Data Customize" style="rounded=1;whiteSpace=wrap;html=1;fontFamily=Chakra Petch;fontSource=https%3A%2F%2Ffonts.googleapis.com%2Fcss%3Ffamily%3DChakra%2BPetch;verticalAlign=bottom;spacingBottom=5;" vertex="1" parent="1">
          <mxGeometry x="327" y="5800" width="120" height="100" as="geometry" />
        </mxCell>
        <mxCell id="zx_7Ppx-CcEC-WtG45oS-10" value="Interactive Web Map" style="rounded=1;whiteSpace=wrap;html=1;fontFamily=Chakra Petch;fontSource=https%3A%2F%2Ffonts.googleapis.com%2Fcss%3Ffamily%3DChakra%2BPetch;verticalAlign=bottom;spacingBottom=5;" vertex="1" parent="1">
          <mxGeometry x="1210" y="5826" width="120" height="100" as="geometry" />
        </mxCell>
        <mxCell id="zx_7Ppx-CcEC-WtG45oS-11" value="Spider Chart" style="rounded=1;whiteSpace=wrap;html=1;fontFamily=Chakra Petch;fontSource=https%3A%2F%2Ffonts.googleapis.com%2Fcss%3Ffamily%3DChakra%2BPetch;verticalAlign=bottom;spacingBottom=5;" vertex="1" parent="1">
          <mxGeometry x="1400" y="5826" width="120" height="100" as="geometry" />
        </mxCell>
        <mxCell id="zx_7Ppx-CcEC-WtG45oS-12" value="Data Cluster" style="rounded=1;whiteSpace=wrap;html=1;fontFamily=Chakra Petch;fontSource=https%3A%2F%2Ffonts.googleapis.com%2Fcss%3Ffamily%3DChakra%2BPetch;verticalAlign=bottom;spacingBottom=5;" vertex="1" parent="1">
          <mxGeometry x="1080" y="5211" width="120" height="100" as="geometry" />
        </mxCell>
        <mxCell id="zx_7Ppx-CcEC-WtG45oS-13" value="Database Design" style="rounded=1;whiteSpace=wrap;html=1;fontFamily=Chakra Petch;fontSource=https%3A%2F%2Ffonts.googleapis.com%2Fcss%3Ffamily%3DChakra%2BPetch;verticalAlign=bottom;spacingBottom=5;" vertex="1" parent="1">
          <mxGeometry x="333" y="4900" width="120" height="100" as="geometry" />
        </mxCell>
        <mxCell id="zx_7Ppx-CcEC-WtG45oS-14" value="Build Form" style="rounded=1;whiteSpace=wrap;html=1;fontFamily=Chakra Petch;fontSource=https%3A%2F%2Ffonts.googleapis.com%2Fcss%3Ffamily%3DChakra%2BPetch;verticalAlign=bottom;spacingBottom=5;" vertex="1" parent="1">
          <mxGeometry x="490" y="4900" width="120" height="100" as="geometry" />
        </mxCell>
        <mxCell id="zx_7Ppx-CcEC-WtG45oS-15" value="Published" style="rounded=1;whiteSpace=wrap;html=1;fontFamily=Chakra Petch;fontSource=https%3A%2F%2Ffonts.googleapis.com%2Fcss%3Ffamily%3DChakra%2BPetch;verticalAlign=bottom;spacingBottom=5;" vertex="1" parent="1">
          <mxGeometry x="640" y="4900" width="120" height="100" as="geometry" />
        </mxCell>
        <mxCell id="zx_7Ppx-CcEC-WtG45oS-16" value="Build Website" style="rounded=1;whiteSpace=wrap;html=1;fontFamily=Chakra Petch;fontSource=https%3A%2F%2Ffonts.googleapis.com%2Fcss%3Ffamily%3DChakra%2BPetch;verticalAlign=bottom;spacingBottom=5;" vertex="1" parent="1">
          <mxGeometry x="1120" y="5640" width="120" height="100" as="geometry" />
        </mxCell>
        <mxCell id="zx_7Ppx-CcEC-WtG45oS-17" value="Build Report" style="rounded=1;whiteSpace=wrap;html=1;fontFamily=Chakra Petch;fontSource=https%3A%2F%2Ffonts.googleapis.com%2Fcss%3Ffamily%3DChakra%2BPetch;verticalAlign=bottom;spacingBottom=5;" vertex="1" parent="1">
          <mxGeometry x="1410" y="5640" width="120" height="100" as="geometry" />
        </mxCell>
        <mxCell id="zx_7Ppx-CcEC-WtG45oS-18" value="Interactive Website" style="rounded=1;whiteSpace=wrap;html=1;fontFamily=Chakra Petch;fontSource=https%3A%2F%2Ffonts.googleapis.com%2Fcss%3Ffamily%3DChakra%2BPetch;verticalAlign=bottom;spacingBottom=5;" vertex="1" parent="1">
          <mxGeometry x="1051" y="5826" width="120" height="100" as="geometry" />
        </mxCell>
        <mxCell id="zx_7Ppx-CcEC-WtG45oS-19" value="Data Customize" style="rounded=1;whiteSpace=wrap;html=1;fontFamily=Chakra Petch;fontSource=https%3A%2F%2Ffonts.googleapis.com%2Fcss%3Ffamily%3DChakra%2BPetch;verticalAlign=bottom;spacingBottom=5;" vertex="1" parent="1">
          <mxGeometry x="1540" y="5826" width="120" height="100" as="geometry" />
        </mxCell>
        <mxCell id="zx_7Ppx-CcEC-WtG45oS-21" value="" style="rounded=1;whiteSpace=wrap;html=1;absoluteArcSize=1;arcSize=14;strokeWidth=2;strokeColor=#23445d;shadow=1;textShadow=1;movable=1;resizable=1;rotatable=1;deletable=1;editable=1;locked=0;connectable=1;fillColor=#FCFCFC;" vertex="1" parent="1">
          <mxGeometry x="1890" y="5190" width="760" height="280" as="geometry" />
        </mxCell>
        <mxCell id="zx_7Ppx-CcEC-WtG45oS-22" value="" style="group;fontFamily=Chakra Petch;fontSource=https%3A%2F%2Ffonts.googleapis.com%2Fcss%3Ffamily%3DChakra%2BPetch;" vertex="1" connectable="0" parent="1">
          <mxGeometry x="1921" y="5160" width="172.00000000000006" height="48" as="geometry" />
        </mxCell>
        <mxCell id="zx_7Ppx-CcEC-WtG45oS-23" value="&lt;span style=&quot;font-size: 17px;&quot;&gt;&lt;b&gt;&amp;nbsp; &amp;nbsp; &amp;nbsp; &amp;nbsp; &amp;nbsp; &amp;nbsp;Production&lt;/b&gt;&lt;/span&gt;" style="rounded=1;whiteSpace=wrap;html=1;fillColor=#647687;strokeColor=#314354;glass=0;shadow=1;textShadow=1;fontColor=#ffffff;fontFamily=Chakra Petch;fontSource=https%3A%2F%2Ffonts.googleapis.com%2Fcss%3Ffamily%3DChakra%2BPetch;" vertex="1" parent="zx_7Ppx-CcEC-WtG45oS-22">
          <mxGeometry width="172" height="48" as="geometry" />
        </mxCell>
        <mxCell id="zx_7Ppx-CcEC-WtG45oS-24" value="" style="image;points=[];aspect=fixed;html=1;align=center;shadow=0;dashed=0;image=img/lib/allied_telesis/computer_and_terminals/Server_Desktop.svg;" vertex="1" parent="zx_7Ppx-CcEC-WtG45oS-22">
          <mxGeometry x="13.079999999999984" y="4.940000000000055" width="31.6" height="40.06" as="geometry" />
        </mxCell>
        <mxCell id="zx_7Ppx-CcEC-WtG45oS-27" value="Human Validation" style="rounded=1;whiteSpace=wrap;html=1;fontFamily=Chakra Petch;fontSource=https%3A%2F%2Ffonts.googleapis.com%2Fcss%3Ffamily%3DChakra%2BPetch;verticalAlign=bottom;spacingBottom=5;" vertex="1" parent="1">
          <mxGeometry x="1980" y="5290" width="120" height="100" as="geometry" />
        </mxCell>
        <mxCell id="zx_7Ppx-CcEC-WtG45oS-28" value="Implement &amp;amp; Published" style="rounded=1;whiteSpace=wrap;html=1;fontFamily=Chakra Petch;fontSource=https%3A%2F%2Ffonts.googleapis.com%2Fcss%3Ffamily%3DChakra%2BPetch;verticalAlign=bottom;spacingBottom=5;" vertex="1" parent="1">
          <mxGeometry x="2270" y="5290" width="150" height="100" as="geometry" />
        </mxCell>
      </root>
    </mxGraphModel>
  </diagram>
</mxfile>
